<svg width="158" height="47" viewBox="0 0 158 47" fill="none" xmlns="http://www.w3.org/2000/svg">
<path d="M43.487 14.7649C41.5976 9.62263 37.8385 5.37055 32.9509 2.84703C28.0633 0.323513 22.4019 -0.288301 17.0828 1.13222C11.7638 2.55275 7.17325 5.90251 4.21622 10.5211C1.25919 15.1396 0.150304 20.6918 1.1082 26.0828C2.0661 31.4739 5.02127 36.3126 9.39104 39.6449C13.7608 42.9773 19.2281 44.5614 24.7148 44.085C30.2016 43.6085 35.3097 41.1061 39.032 37.0712C42.7543 33.0362 44.8206 27.7615 44.8236 22.287C44.8261 19.721 44.3736 17.1747 43.487 14.7649ZM20.4118 29.5664C19.4461 29.5664 18.5022 29.2818 17.6993 28.7485C16.8964 28.2153 16.2706 27.4573 15.9011 26.5706C15.5315 25.6838 15.4349 24.7081 15.6232 23.7667C15.8116 22.8253 16.2766 21.9606 16.9594 21.2819C17.6423 20.6032 18.5122 20.141 19.4593 19.9538C20.4064 19.7665 21.3881 19.8626 22.2802 20.2299C23.1723 20.5972 23.9348 21.2192 24.4713 22.0173C25.0078 22.8154 25.2941 23.7536 25.2941 24.7134C25.2941 26.0005 24.7798 27.2349 23.8641 28.145C22.9485 29.0551 21.7067 29.5664 20.4118 29.5664Z" fill="#b5a22e"/>
<path d="M59.4708 45.3382C70.2566 45.3382 79.0002 36.6472 79.0002 25.9264C79.0002 15.2056 70.2566 6.51465 59.4708 6.51465C48.685 6.51465 39.9414 15.2056 39.9414 25.9264C39.9414 36.6472 48.685 45.3382 59.4708 45.3382Z" fill="#b5a22e"/>
<path d="M91.2054 46.5516C100.643 46.5516 108.294 38.9471 108.294 29.5663C108.294 20.1856 100.643 12.5811 91.2054 12.5811C81.7678 12.5811 74.1172 20.1856 74.1172 29.5663C74.1172 38.9471 81.7678 46.5516 91.2054 46.5516Z" fill="#b5a22e"/>
<path d="M120.5 45.3384C128.589 45.3384 135.147 38.8201 135.147 30.7795C135.147 22.7389 128.589 16.2207 120.5 16.2207C112.41 16.2207 105.853 22.7389 105.853 30.7795C105.853 38.8201 112.41 45.3384 120.5 45.3384Z" fill="#b5a22e"/>
<path d="M144.912 44.1251C151.653 44.1251 157.118 38.6932 157.118 31.9927C157.118 25.2922 151.653 19.8604 144.912 19.8604C138.171 19.8604 132.706 25.2922 132.706 31.9927C132.706 38.6932 138.171 44.1251 144.912 44.1251Z" fill="#b5a22e"/>
</svg>
