<svg width="119" height="165" viewBox="0 0 119 165" fill="none" xmlns="http://www.w3.org/2000/svg">
<path d="M110.369 80.2231L5.70215 140.652C9.6441 147.68 15.7008 153.497 24.1187 157.678L117.463 103.786C116.064 96.1186 113.635 88.0587 110.369 80.2231Z" fill="#b5a22e"/>
<path d="M92.2115 50.3584L1.77082 102.574C-0.0277433 111.776 -0.624255 121.295 1.6287 130.314L105.68 70.2406C101.974 63.1888 97.4766 56.2952 92.2115 50.3584Z" fill="#b5a22e"/>
<path d="M118.795 115.706L37.752 162.496C68.6012 169.782 120.389 163.161 118.795 115.706Z" fill="#b5a22e"/>
<path d="M64.997 33.4334V5.49495C64.997 2.46018 62.5372 0 59.5021 0C56.4673 0 54.0071 2.46018 54.0071 5.49495V33.4534C33.0953 37.0528 15.1757 60.5015 5.85352 87.5277L83.9388 42.4453C77.5467 37.3603 71.1897 34.4811 64.997 33.4334Z" fill="#b5a22e"/>
</svg>
