<svg width="64" height="40" viewBox="0 0 64 40" fill="none" xmlns="http://www.w3.org/2000/svg">
<path d="M53.6536 7.05776C52.6298 7.19501 51.1875 7.54619 50.2409 7.88123C48.6889 8.43425 46.2837 9.56853 44.9186 10.396C42.9156 11.607 40.9858 13.0965 38.5602 15.2924C36.7645 16.9192 35.5456 18.3643 34.5787 20.0112C34.4487 20.2333 34.2983 20.4835 34.2455 20.5643C34.0424 20.8912 33.823 20.6773 33.7945 20.1202C33.7783 19.8579 33.7864 19.8094 33.8839 19.6681C33.9571 19.5591 33.9896 19.4542 33.9896 19.3371C33.9896 19.1878 33.9652 19.1474 33.7905 18.9779C33.6808 18.8729 33.5345 18.776 33.4655 18.7599C33.3964 18.7437 33.3395 18.7155 33.3395 18.6913C33.3395 18.6146 33.7864 17.9001 34.0871 17.4964C34.4162 17.0605 34.6599 16.7739 35.57 15.7728C36.2363 15.0381 36.736 14.4326 37.0651 13.9442C37.2154 13.7262 37.4592 13.4518 37.7924 13.145C38.2149 12.7494 38.5399 12.3699 38.5399 12.269C38.5399 12.2085 38.3165 12.2448 38.1905 12.3255C38.1133 12.3699 37.9102 12.592 37.7355 12.818C37.5608 13.0441 37.378 13.2741 37.3292 13.3307C37.2845 13.3872 37.0367 13.6939 36.7889 14.0169C36.1916 14.7879 35.6066 15.4781 34.3268 16.9232L33.2745 18.114L32.9048 18.1463C32.5676 18.1786 32.5148 18.1746 32.2507 18.0817C31.9907 17.9849 31.9338 17.9445 31.5681 17.561C31.3447 17.3309 30.589 16.564 29.8861 15.8535C28.4316 14.3882 27.9603 13.8837 27.1396 12.9028C26.6033 12.265 26.4002 12.0793 26.2336 12.0793C26.0752 12.0793 26.5424 12.7131 27.1193 13.2741C27.4159 13.5607 27.7694 13.9321 27.9075 14.0976C28.3951 14.691 28.7404 15.0503 29.6627 15.9222C30.9343 17.1251 31.69 17.9485 32.0069 18.4894L32.08 18.6105L31.9256 18.6872C31.7428 18.7801 31.5925 19.0465 31.5925 19.2766C31.5925 19.3614 31.6331 19.5228 31.6778 19.6318C31.7509 19.7973 31.7631 19.8821 31.7428 20.0879C31.7144 20.3866 31.6128 20.6248 31.495 20.6611C31.3975 20.6934 31.2959 20.5885 30.7149 19.8457C28.4154 16.9232 25.0392 14.1339 20.8301 11.6797C18.7621 10.4727 15.4753 9.17295 12.9969 8.5836C11.774 8.29296 11.0671 8.19609 10.0392 8.1759C8.65784 8.14361 7.93466 8.26874 7.06521 8.68855L6.6508 8.89038L6.46391 9.20524C6.22421 9.61697 6.04138 10.0852 6.00888 10.3839C5.98856 10.6019 5.99669 10.6544 6.10232 10.8602C6.21202 11.0782 6.22014 11.1267 6.24452 11.7564C6.26483 12.3619 6.27702 12.4426 6.37453 12.6444C6.43141 12.7655 6.53704 13.1006 6.60611 13.3912C6.67518 13.6778 6.77675 13.9927 6.83363 14.0855C6.89051 14.1824 7.08146 14.3802 7.26023 14.5295C7.63807 14.8444 7.75183 15.018 7.84121 15.4014C7.87778 15.5548 7.96716 15.8091 8.04029 15.9666C8.18249 16.2733 8.64971 16.9798 8.84067 17.1856C9.03162 17.3915 9.056 17.4803 9.0885 18.1221L9.121 18.7316L9.34446 19.2524C9.65729 19.9991 9.80356 20.4391 9.87262 20.8791C9.98232 21.5532 10.2383 22.296 10.5552 22.8571C10.8599 23.3899 11.384 24.0923 11.6887 24.3748C11.9 24.5686 12.3469 24.6897 13.0985 24.7543C13.6714 24.8027 14.3417 24.7664 15.6012 24.613C16.0603 24.5565 16.6047 24.5 16.8119 24.4878L17.1898 24.4596L16.8241 24.7139C15.9465 25.3234 15.0202 26.0863 14.8008 26.377C14.744 26.4496 14.4352 27.0269 14.1142 27.6606C13.3951 29.0775 13.1879 29.6709 13.1879 30.3329C13.1879 30.5387 13.2082 30.6073 13.3504 30.8374C13.7445 31.4873 14.0005 32.5409 14.0005 33.5016C14.0005 33.7155 14.0086 33.7357 14.1792 33.8931C15.008 34.6682 15.1462 34.8498 15.6337 35.7904L15.9262 36.3595L16.4016 36.5936C16.6616 36.7188 17.1938 37.0336 17.5798 37.2879C18.1933 37.6916 18.2989 37.7723 18.368 37.9217C18.4818 38.1558 18.7946 38.4586 19.0749 38.5958C19.4 38.7613 19.7778 38.8663 20.4807 38.9833C21.3054 39.1246 21.5614 39.1892 21.9311 39.3547L22.2439 39.5L22.703 39.4758C23.4384 39.4395 24.0722 39.3708 24.1697 39.3224C24.2225 39.2941 24.4825 39.2699 24.8279 39.2659C25.3601 39.2618 25.4211 39.2538 25.7502 39.1327C25.9411 39.06 26.4165 38.8501 26.8065 38.6604C27.1925 38.4707 27.6637 38.2648 27.8506 38.2083L28.1919 38.1033L28.4438 37.7158C29.3376 36.3595 29.752 35.3383 30.9384 31.6044C31.3569 30.3006 31.69 29.3721 31.7875 29.2632C31.8241 29.2188 31.8931 29.1945 31.9541 29.2026C32.0435 29.2147 32.0678 29.247 32.1125 29.4165C32.2425 29.9292 32.2629 30.5185 32.1857 31.8829C32.1085 33.2352 32.1166 33.6631 32.2304 34.2605C32.3319 34.8175 32.6854 35.5805 32.8601 35.637C33.0592 35.6975 33.1932 35.536 33.4126 34.979C33.823 33.9335 33.8677 33.0697 33.628 30.8455C33.4655 29.3277 33.437 28.8312 33.5142 28.8312C33.5467 28.8312 33.5914 28.8555 33.6158 28.8837C33.6402 28.912 33.8717 29.5457 34.1236 30.2885C35.3953 33.99 36.4638 36.6502 36.9839 37.4131C37.0773 37.5463 37.2276 37.7239 37.3211 37.8087C37.4877 37.958 37.8533 38.1558 37.9671 38.1558C37.9996 38.1558 38.1702 38.2487 38.349 38.3617C39.1737 38.8864 39.8075 39.0237 41.7089 39.0842C42.3915 39.1044 43.0131 39.1327 43.0944 39.1448C43.2 39.1569 43.3259 39.1286 43.5656 39.0277C44.2238 38.7492 45.2355 38.4626 46.1455 38.2971L46.5396 38.2244L46.694 37.9984C47.1409 37.3566 47.9901 36.6824 49.0627 36.1294C49.2739 36.0204 49.473 35.9074 49.5014 35.8792C49.5299 35.8509 49.6355 35.6127 49.7371 35.3463C49.924 34.8498 50.1027 34.535 50.2571 34.4098C50.3059 34.3735 50.3709 34.2847 50.3993 34.212C50.4562 34.0748 50.6715 33.8568 51.09 33.5097C51.48 33.1867 51.541 33.0414 51.541 32.4642C51.541 31.7376 51.6507 31.3662 52.1748 30.3167L52.4714 29.7233L52.3901 29.4085C52.1951 28.6778 51.8863 27.9795 51.1591 26.6515C50.7568 25.9168 50.6512 25.7513 50.4521 25.5697C50.1556 25.2911 49.603 24.9278 48.6523 24.3748C47.9616 23.9752 47.5675 23.7169 47.7219 23.7653C47.8641 23.8097 49.5502 23.9469 50.2206 23.9712C51.3622 24.0115 52.9508 23.8581 53.3205 23.6684C53.5155 23.5675 53.548 23.5312 53.8974 22.958C54.6206 21.7672 54.9944 20.754 54.9944 19.987C54.9944 19.7368 55.0309 19.5914 55.2788 18.8648C55.6079 17.9041 55.7176 17.4359 55.7541 16.8425C55.7785 16.4348 55.7826 16.4146 55.9166 16.2572C56.1238 16.019 56.3798 15.462 56.6601 14.6506C56.9445 13.8231 57.0664 13.5648 57.3468 13.1934C57.4605 13.0441 57.5661 12.8947 57.5865 12.8543C57.6515 12.7292 57.7124 12.4305 57.7571 11.9784C57.7855 11.7322 57.8505 11.4012 57.9034 11.2397C58.0212 10.8804 58.0252 10.7351 57.9156 10.3072C57.8262 9.94797 57.8343 9.69367 57.9399 9.55239C58.0293 9.43533 58.0171 9.01552 57.9156 8.75314C57.4402 7.48564 55.6769 6.78731 53.6536 7.05776Z" fill="#b5a22e"/>
</svg>
