<svg width="42" height="42" viewBox="0 0 42 42" fill="none" xmlns="http://www.w3.org/2000/svg">
<mask id="path-1-inside-1" fill="white">
<path fill-rule="evenodd" clip-rule="evenodd" d="M42 0H0V42H42V0ZM26.2513 25.5827L32.2013 31.771C32.7047 32.2946 32.688 33.1293 32.1649 33.6327C31.9187 33.8697 31.5944 34 31.2525 34C30.8913 34 30.5543 33.8565 30.3037 33.5963L24.3085 27.361C22.6061 28.5573 20.615 29.1875 18.5256 29.1875C12.96 29.1875 8.4319 24.6593 8.4319 19.0937C8.4319 13.5281 12.96 9 18.5256 9C24.0912 9 28.6194 13.5281 28.6194 19.0937C28.6194 21.4759 27.7812 23.7641 26.2513 25.5827ZM25.9862 19.0937C25.9862 14.9799 22.6395 11.6332 18.5256 11.6332C14.4118 11.6332 11.0651 14.9799 11.0651 19.0937C11.0651 23.2076 14.4118 26.5543 18.5256 26.5543C22.6395 26.5543 25.9862 23.2076 25.9862 19.0937Z"/>
</mask>
<path fill-rule="evenodd" clip-rule="evenodd" d="M42 0H0V42H42V0ZM26.2513 25.5827L32.2013 31.771C32.7047 32.2946 32.688 33.1293 32.1649 33.6327C31.9187 33.8697 31.5944 34 31.2525 34C30.8913 34 30.5543 33.8565 30.3037 33.5963L24.3085 27.361C22.6061 28.5573 20.615 29.1875 18.5256 29.1875C12.96 29.1875 8.4319 24.6593 8.4319 19.0937C8.4319 13.5281 12.96 9 18.5256 9C24.0912 9 28.6194 13.5281 28.6194 19.0937C28.6194 21.4759 27.7812 23.7641 26.2513 25.5827ZM25.9862 19.0937C25.9862 14.9799 22.6395 11.6332 18.5256 11.6332C14.4118 11.6332 11.0651 14.9799 11.0651 19.0937C11.0651 23.2076 14.4118 26.5543 18.5256 26.5543C22.6395 26.5543 25.9862 23.2076 25.9862 19.0937Z" fill="#b5a22e"/>
<path d="M0 0V-1H-1V0H0ZM42 0H43V-1H42V0ZM0 42H-1V43H0V42ZM42 42V43H43V42H42ZM32.2013 31.771L32.9222 31.078L32.9222 31.0779L32.2013 31.771ZM26.2513 25.5827L25.4861 24.939L24.907 25.6273L25.5305 26.2758L26.2513 25.5827ZM32.1649 33.6327L31.4715 32.9121L31.4714 32.9122L32.1649 33.6327ZM30.3037 33.5963L29.5829 34.2893L29.5834 34.2899L30.3037 33.5963ZM24.3085 27.361L25.0293 26.6679L24.435 26.0498L23.7335 26.5428L24.3085 27.361ZM0 1H42V-1H0V1ZM1 42V0H-1V42H1ZM42 41H0V43H42V41ZM41 0V42H43V0H41ZM32.9222 31.0779L26.9722 24.8896L25.5305 26.2758L31.4805 32.4641L32.9222 31.0779ZM32.8583 34.3533C33.7789 33.4674 33.8086 31.9999 32.9222 31.078L31.4805 32.4641C31.6009 32.5893 31.5971 32.7912 31.4715 32.9121L32.8583 34.3533ZM31.2525 35C31.8522 35 32.4253 34.77 32.8584 34.3531L31.4714 32.9122C31.4121 32.9693 31.3366 33 31.2525 33V35ZM29.5834 34.2899C30.0222 34.7456 30.6193 35 31.2525 35V33C31.1634 33 31.0864 32.9673 31.0241 32.9026L29.5834 34.2899ZM23.5876 28.054L29.5829 34.2893L31.0246 32.9032L25.0293 26.6679L23.5876 28.054ZM18.5256 30.1875C20.8206 30.1875 23.0125 29.4939 24.8835 28.1791L23.7335 26.5428C22.1998 27.6206 20.4095 28.1875 18.5256 28.1875V30.1875ZM7.4319 19.0937C7.4319 25.2116 12.4078 30.1875 18.5256 30.1875V28.1875C13.5123 28.1875 9.4319 24.1071 9.4319 19.0937H7.4319ZM18.5256 8C12.4078 8 7.4319 12.9759 7.4319 19.0937H9.4319C9.4319 14.0804 13.5123 10 18.5256 10V8ZM29.6194 19.0937C29.6194 12.9759 24.6435 8 18.5256 8V10C23.539 10 27.6194 14.0804 27.6194 19.0937H29.6194ZM27.0165 26.2264C28.6975 24.2282 29.6194 21.7122 29.6194 19.0937H27.6194C27.6194 21.2395 26.8648 23.3 25.4861 24.939L27.0165 26.2264ZM18.5256 12.6332C22.0872 12.6332 24.9862 15.5322 24.9862 19.0937H26.9862C26.9862 14.4276 23.1918 10.6332 18.5256 10.6332V12.6332ZM12.0651 19.0937C12.0651 15.5322 14.9641 12.6332 18.5256 12.6332V10.6332C13.8595 10.6332 10.0651 14.4276 10.0651 19.0937H12.0651ZM18.5256 25.5543C14.9641 25.5543 12.0651 22.6553 12.0651 19.0937H10.0651C10.0651 23.7599 13.8595 27.5543 18.5256 27.5543V25.5543ZM24.9862 19.0937C24.9862 22.6553 22.0872 25.5543 18.5256 25.5543V27.5543C23.1918 27.5543 26.9862 23.7599 26.9862 19.0937H24.9862Z" fill="#b5a22e" mask="url(#path-1-inside-1)"/>
</svg>
